<svg width="200" height="200" xmlns="http://www.w3.org/2000/svg" xmlns:xlink="http://www.w3.org/1999/xlink" xml:space="preserve" overflow="hidden"><g transform="translate(-540 -260)"><path d="M86.6667 96.6667 86.6667 83.3333 93.3333 83.3333 93.3333 96.6667 86.6667 96.6667" fill="#EC5975" transform="matrix(1 0 0 -1 540 460)"/><path d="M80 103.333 80 96.6667 86.6667 96.6667 86.6667 103.333 80 103.333" fill="#EC5975" transform="matrix(1 0 0 -1 540 460)"/><path d="M73.3333 110 73.3333 103.333 80 103.333 80 110 73.3333 110" fill="#EC5975" transform="matrix(1 0 0 -1 540 460)"/><path d="M73.3333 163.333 66.6667 163.333 66.6667 110 73.3333 110 73.3333 163.333" fill="#EC5975" transform="matrix(1 0 0 -1 540 460)"/><path d="M80 183.333 73.3333 183.333 73.3333 170 80 170 80 183.333" fill="#EC5975" transform="matrix(1 0 0 -1 540 460)"/><path d="M86.6667 190 80 190 80 183.333 86.6667 183.333 86.6667 190" fill="#EC5975" transform="matrix(1 0 0 -1 540 460)"/><path d="M106.667 96.6667 106.667 83.3333 93.3333 83.3333 93.3333 96.6667 86.6667 96.6667 86.6667 103.333 80 103.333 80 110 73.3333 110 73.3333 163.333 66.6667 163.333 66.6667 110 73.3333 110 73.3333 103.333 80 103.333 80 96.6667 86.6667 96.6667 86.6667 83.3333 53.3333 83.3333 53.3333 190 80 190 80 183.333 73.3333 183.333 73.3333 170 80 170 80 183.333 86.6667 183.333 86.6667 190 100 190 100 176.667 93.3333 176.667 93.3333 170 86.6667 170 86.6667 110 93.3333 110 93.3333 103.333 100 103.333 100 96.6667 106.667 96.6667" fill="#D8324A" transform="matrix(1 0 0 -1 540 460)"/><path d="M60 23.3333 66.6667 23.3333 66.6667 83.3333 60 83.3333 60 23.3333" fill="#8191AF" transform="matrix(1 0 0 -1 540 460)"/><path d="M66.6667 10 60 10 60 23.3333 66.6667 23.3333 66.6667 10" fill="#586688" transform="matrix(1 0 0 -1 540 460)"/><path d="M53.3333 190 53.3333 83.3333 20 83.3333 20 96.6667 26.6667 96.6667 26.6667 103.333 33.3333 103.333 33.3333 110 40 110 40 170 33.3333 170 33.3333 176.667 26.6667 176.667 26.6667 190 53.3333 190" fill="#942837" transform="matrix(1 0 0 -1 540 460)"/><path d="M160 63.3333 166.667 63.3333 166.667 150 160 150 160 63.3333" fill="#61C451" transform="matrix(1 0 0 -1 540 460)"/><path d="M140 50 140 36.6667 146.667 36.6667 146.667 30 160 30 160 36.6667 166.667 36.6667 166.667 50 140 50" fill="#61C451" transform="matrix(1 0 0 -1 540 460)"/><path d="M126.667 156.667 126.667 63.3333 160 63.3333 160 150 166.667 150 166.667 63.3333 180 63.3333 180 156.667 126.667 156.667" fill="#46894A" transform="matrix(1 0 0 -1 540 460)"/><path d="M133.333 63.3333 133.333 56.6667 140 56.6667 140 50 166.667 50 166.667 56.6667 173.333 56.6667 173.333 63.3333 133.333 63.3333" fill="#586688" transform="matrix(1 0 0 -1 540 460)"/><path d="M133.333 163.333 133.333 156.667 173.333 156.667 173.333 163.333 133.333 163.333" fill="#586688" transform="matrix(1 0 0 -1 540 460)"/><path d="M146.667 63.3333 126.667 63.3333 126.667 156.667 146.667 156.667 146.667 63.3333" fill="#315843" transform="matrix(1 0 0 -1 540 460)"/></g></svg>